<?xml version="1.0" encoding="utf-8"?>
<!-- Generator: Adobe Illustrator 21.0.0, SVG Export Plug-In . SVG Version: 6.00 Build 0)  -->
<svg version="1.1" id="Layer_1" xmlns="http://www.w3.org/2000/svg" xmlns:xlink="http://www.w3.org/1999/xlink" x="0px" y="0px"
	 viewBox="0 0 100 100" style="enable-background:new 0 0 100 100;" xml:space="preserve">
<g>
	<path d="M69.2,71.8l-5.2-3c0.2-1.5,0.3-3,0.3-4.5c0-1.5-0.1-3-0.4-4.5l5.2-3c1-0.6,1.3-1.8,0.7-2.8l-8.2-14.1
		c-0.3-0.5-0.7-0.8-1.3-1c-0.5-0.1-1.1-0.1-1.6,0.2l-5,3c-2.3-1.9-4.9-3.5-8-4.5v-5.9c0-1.1-0.9-2-2-2h-16c-1.1,0-2,0.9-2,2v5.9
		c-2.9,1-5.4,2.5-7.9,4.6l-5.3-3c-1-0.6-2.2-0.2-2.8,0.7L1.6,54c-0.3,0.5-0.3,1-0.2,1.5c0.1,0.5,0.5,1,0.9,1.2l5.2,3
		c-0.2,1.5-0.4,3-0.4,4.5c0,1.5,0.1,3,0.4,4.5l-5.2,3c-1,0.6-1.3,1.8-0.7,2.8l8.2,14.1c0.6,1,1.8,1.3,2.8,0.8l5.3-3
		c2.5,2.1,5.1,3.6,7.9,4.6V97c0,1.1,0.9,2,2,2h16c1.1,0,2-0.9,2-2V91c3.1-1.1,5.7-2.6,8-4.6l5.1,3c0.5,0.3,1,0.4,1.6,0.2
		c0.5-0.1,1-0.5,1.2-1l8.1-14.1C70.5,73.6,70.2,72.3,69.2,71.8z M35.8,78.6c-7.9,0-14.3-6.4-14.3-14.3S27.9,50,35.8,50
		C43.6,50,50,56.4,50,64.3S43.6,78.6,35.8,78.6z"/>
	<path d="M97.6,25.3l-2.8-1.6c0.1-0.7,0.2-1.5,0.2-2.3c0-0.7-0.1-1.5-0.2-2.3l2.8-1.6c1-0.6,1.3-1.8,0.7-2.8l-4.1-7.1
		c-0.3-0.5-0.7-0.8-1.3-1c-0.5-0.1-1.1-0.1-1.6,0.2l-2.7,1.6c-1.2-0.9-2.4-1.7-3.8-2.2V3c0-1.1-0.9-2-2-2h-8.2c-1.1,0-2,0.9-2,2v3.3
		c-1.5,0.6-2.9,1.4-4.1,2.3l-2.9-1.7c-1-0.6-2.2-0.2-2.8,0.7l-4.1,7.1c-0.3,0.5-0.3,1-0.2,1.5c0.1,0.5,0.5,1,1,1.2l2.8,1.6
		c-0.1,0.8-0.2,1.5-0.2,2.3c0,0.7,0.1,1.5,0.2,2.3l-2.8,1.6c-0.5,0.3-0.8,0.7-1,1.2c-0.1,0.5-0.1,1.1,0.2,1.6l4.1,7.1
		c0.6,1,1.8,1.3,2.8,0.8l3-1.7c1.2,0.9,2.6,1.7,4.1,2.3v3.2c0,1.1,0.9,2,2,2H83c1.1,0,2-0.9,2-2v-3.3c1.3-0.6,2.6-1.3,3.8-2.2
		l2.7,1.6c0.5,0.3,1,0.4,1.6,0.2c0.5-0.1,1-0.5,1.2-1l4-7.1C99,27.1,98.6,25.9,97.6,25.3z M78.6,29.6c-4.5,0-8.2-3.7-8.2-8.2
		s3.7-8.2,8.2-8.2c4.5,0,8.2,3.7,8.2,8.2S83.1,29.6,78.6,29.6z"/>
</g>
</svg>
